<?xml version="1.0" encoding="utf-8"?>
<!-- Generator: Adobe Illustrator 24.1.2, SVG Export Plug-In . SVG Version: 6.00 Build 0)  -->
<svg version="1.1" id="Слой_1" xmlns="http://www.w3.org/2000/svg" xmlns:xlink="http://www.w3.org/1999/xlink" x="0px" y="0px"
	 viewBox="0 0 595.28 841.89" style="enable-background:new 0 0 595.28 841.89;" xml:space="preserve">
<style type="text/css">
	.st0{fill:#FAC86C;stroke:#C18F3F;stroke-width:2;stroke-miterlimit:10;}
	.st1{fill:#FAE5C0;}
	.st2{fill:#FAE5C0;stroke:#C18F3F;stroke-width:2;stroke-miterlimit:10;}
	.st3{fill:#FFFFFF;}
	.st4{stroke:#000000;stroke-miterlimit:10;}
	.st5{fill:#C18F3F;stroke:#C18F3F;stroke-miterlimit:10;}
	.st6{fill:#E0C59D;}
	.st7{display:none;fill:none;stroke:#000000;stroke-miterlimit:10;}
	.st8{fill:#CEE6F9;stroke:#B2D0EE;stroke-width:2;stroke-miterlimit:10;}
</style>
<path class="st0" d="M537.96,344.23c-0.07,3.91,6.92,8.85,4.9,21.21c-2.86,17.55-66.07-0.18-75.12-2.81
	c0.22,3.55,0.33,7.13,0.33,10.73c0,1.03-0.01,2.05-0.03,3.07c0,0-57.73-35.5-87.77-22.21c-42.68,18.88-67.39,6.15-82.63,6.15
	c-14.45,0-33.46,12.99-81.46-6.15c-35.48-14.15-83.9,18.41-88.95,21.9c-0.01-0.92-0.02-1.84-0.02-2.76c0-3.94,0.13-7.84,0.4-11.71
	c-7.31,2.44-70.77,23-75.51,2.9c-2.87-12.19,4.97-17.3,4.91-21.21c-0.09-4.61-10.43-10.07-8.64-24.15
	c1.6-12.55,10.63-11.85,11.7-18.87c1.16-7.64-2.92-11.87,5.8-20.23c16.32-15.63,66.68,27.32,72.53,32.41
	c5.15-13.47,11.96-26.12,20.18-37.7l-14.4-28.33l28.24,11.28h0.01c8.94-9.68,19-18.33,29.96-25.74l-4.57-29.08l22.34,18.59
	c10.56-5.4,21.76-9.73,33.45-12.84v-0.01l3.51-33.96l19.75,29.47c6.81-0.83,13.74-1.25,20.77-1.25c4.21,0,8.37,0.15,12.49,0.45
	l18.99-24.44l4.05,27.7c10.59,2.25,20.82,5.48,30.58,9.59l20.43-17.52l-3.91,25.56v0.01c9.58,5.31,18.59,11.52,26.92,18.52
	l24.99-13.74l-11.99,25.87v0.01c6.19,6.38,11.85,13.24,16.97,20.53l30.88-10.6l-19.85,28.54c3.33,6.25,6.28,12.73,8.81,19.42
	c6.72-7.02,46.2-46.85,65.13-35.25c10.3,6.31,7.66,15.49,8.82,23.13c1.07,7.01,15.99,5.75,15.79,24.28
	C546.58,339.18,538.04,339.62,537.96,344.23z"/>
<g>
	<g>
		<line class="st1" x1="68.5" y1="305.56" x2="124.03" y2="324.09"/>
		<path d="M68.55,305.42c4.7,1.32,9.38,2.71,14.07,4.06l14.02,4.21c4.67,1.42,9.42,2.6,13.98,4.35c4.56,1.74,9.09,3.58,13.46,5.91
			l-0.09,0.28c-4.89-0.76-9.62-2-14.31-3.35c-4.7-1.34-9.2-3.25-13.79-4.92l-13.74-5.06c-4.56-1.74-9.14-3.43-13.69-5.2
			L68.55,305.42z"/>
	</g>
	<g>
		<path d="M65.67,342.47c4.69-0.56,9.38-1.04,14.08-1.57l14.09-1.42c4.7-0.45,9.38-1.16,14.1-1.27c4.72-0.12,9.45-0.12,14.21,0.38
			l0.02,0.3c-4.65,1.15-9.33,1.79-14.03,2.31c-4.69,0.54-9.42,0.47-14.14,0.67l-14.15,0.52c-4.72,0.12-9.44,0.28-14.16,0.37
			L65.67,342.47z"/>
	</g>
</g>
<g>
	<g>
		<path d="M521.48,306.59c-3.86,1.71-7.74,3.34-11.61,5.02l-11.66,4.88c-3.9,1.61-7.7,3.46-11.72,4.74c-4.01,1.3-8.07,2.48-12.3,3.2
			l-0.11-0.28c3.65-2.26,7.48-4.05,11.35-5.72c3.86-1.69,7.94-2.81,11.93-4.18l11.98-4.04c4.01-1.3,8.01-2.64,12.04-3.9
			L521.48,306.59z"/>
	</g>
	<g>
		<path d="M526.35,343.66c-4.37-0.08-8.74-0.25-13.1-0.37l-13.09-0.52c-4.36-0.19-8.74-0.13-13.08-0.67
			c-4.34-0.52-8.67-1.17-12.96-2.31l0.02-0.3c4.41-0.5,8.79-0.5,13.16-0.38c4.37,0.1,8.69,0.81,13.04,1.27l13.03,1.42
			c4.34,0.52,8.68,1,13.01,1.56L526.35,343.66z"/>
	</g>
</g>
<path class="st2" d="M452.6,444.39l19.81,21.14l-28.44-4.77c-7.18,12.01-15.81,23.06-25.63,32.92l13.42,23.45l-28.59-9.94
	c-10.31,8.15-21.59,15.13-33.64,20.74l3.86,28.61l-21.68-21.5c-13.06,4.36-26.83,7.19-41.08,8.26l-12.99,25.99l-5.96-25.6
	c-13.99-0.48-27.55-2.65-40.49-6.31l-18.53,24.15v-30.57c-13.73-5.66-26.55-13.06-38.2-21.94l-28.4,14.39l11.83-28.78
	c-9.7-9.58-18.26-20.31-25.44-31.98l-29.92,5.7l19.75-24.81c-5.32-11.78-9.36-24.28-11.9-37.3h-27.85l25.41-16.96
	c-0.4-4.34-0.64-8.73-0.71-13.16c5.05-3.49,53.47-36.05,88.95-21.9c48,19.14,67.01,6.15,81.46,6.15c15.24,0,39.95,12.73,82.63-6.15
	c30.04-13.29,87.77,22.21,87.77,22.21c-0.08,4.28-0.31,8.52-0.69,12.71l24.83,17.1H464.9C462.29,419.58,458.12,432.36,452.6,444.39z
	"/>
<g>
	<path class="st3" d="M205.78,316.98c-2.79-21.13,8.94-45.8,27.11-48.19s35.89,18.39,38.67,39.52s-9.68,40.2-27.85,42.59
		C225.55,353.29,208.57,338.1,205.78,316.98z"/>
	<path class="st4" d="M261.6,324.99c0,10.23-8.3,18.53-18.53,18.53s-18.53-8.3-18.53-18.53s8.3-18.53,18.53-18.53
		c0.74,0,1.47,0.04,2.18,0.13c-0.44,0.84-0.83,1.73-1.17,2.66c-2.79,7.63-1,15.29,4,17.12c4.22,1.54,9.39-1.6,12.57-7.22
		C261.27,320.99,261.6,322.95,261.6,324.99z"/>
	<g>
		<path d="M205.24,274.74c0.92-4.33,3.08-8.32,5.92-11.79c1.4-1.77,3.09-3.3,4.87-4.74c1.83-1.38,3.84-2.56,5.96-3.51
			c2.16-0.86,4.42-1.51,6.71-1.84l1.73-0.17l1.73-0.05c1.15-0.04,2.3,0.09,3.42,0.22c4.52,0.62,8.75,2.29,12.3,4.86l-0.11,0.28
			c-3.93-1.56-8.09-2.58-12.3-2.78c-4.21-0.18-8.45,0.58-12.31,2.24c-3.87,1.65-7.36,4.14-10.31,7.15
			c-2.95,3.01-5.48,6.48-7.34,10.26L205.24,274.74z"/>
	</g>
</g>
<g>
	<g>
		<path d="M389.76,274.86c-2.79-3.31-5.66-6.3-8.71-8.93c-1.57-1.27-3.09-2.53-4.77-3.54c-1.64-1.07-3.33-2.01-5.11-2.74
			c-3.52-1.54-7.32-2.32-11.28-2.54c-3.97-0.16-8.07,0.27-12.39,0.88l-0.11-0.28c3.94-1.62,8.12-2.7,12.39-2.95
			c4.27-0.24,8.6,0.48,12.56,2.14c3.94,1.72,7.44,4.31,10.4,7.39c2.95,3.09,5.45,6.6,7.29,10.46L389.76,274.86z"/>
	</g>
	<path class="st3" d="M389.49,316.98c2.79-21.13-8.94-45.8-27.11-48.19s-35.89,18.39-38.67,39.52c-2.79,21.13,9.68,40.2,27.85,42.59
		C369.72,353.29,386.71,338.1,389.49,316.98z"/>
	<path class="st4" d="M370.22,325.49c-0.28,10.23-8.8,18.3-19.03,18.02c-10.23-0.28-18.3-8.8-18.02-19.03s8.8-18.3,19.03-18.02
		c0.74,0.02,1.47,0.08,2.18,0.19c-0.46,0.83-0.88,1.71-1.24,2.63c-3,7.55-1.42,15.26,3.53,17.22c4.18,1.65,9.43-1.34,12.76-6.87
		C370,321.48,370.28,323.45,370.22,325.49z"/>
</g>
<g>
	<circle class="st5" cx="297.64" cy="397.76" r="20.76"/>
	<circle class="st4" cx="297.64" cy="397.76" r="12.84"/>
</g>
<ellipse transform="matrix(0.9772 -0.2123 0.2123 0.9772 -72.9351 89.5018)" class="st6" cx="380.27" cy="384.35" rx="37.75" ry="23.03"/>
<ellipse transform="matrix(0.2123 -0.9772 0.9772 0.2123 -206.2328 512.849)" class="st6" cx="215" cy="384.35" rx="23.03" ry="37.75"/>
<path class="st7" d="M468.04,376.43c0,0-57.73-35.5-87.77-22.21c-42.68,18.88-67.39,6.15-82.63,6.15
	c-14.45,0-33.46,12.99-81.46-6.15c-35.48-14.15-83.9,18.41-88.95,21.9c-0.28,0.2-0.43,0.31-0.43,0.31"/>
<g>
	<circle class="st8" cx="430.3" cy="326.69" r="16.83"/>
	<path class="st3" d="M432.18,313.06c0,0-12.97-1.16-14.82,14.74l2.02,1.16C419.37,328.95,418.59,316.76,432.18,313.06z"/>
	<path class="st3" d="M433.59,338c0,0,4.53,0,7.41-5.09C441,332.91,435.88,336.79,433.59,338z"/>
</g>
<g>
	<circle class="st8" cx="483.08" cy="274.8" r="24.88"/>
	<path class="st3" d="M483.35,254.94c0,0-19.65-0.02-19.65,20.53h5.57c0.86,0,1.62-0.55,1.88-1.37
		C472.52,269.74,477.17,256.42,483.35,254.94z"/>
	<path class="st3" d="M485.38,292.26c0,0,8.3,0,13.59-7.92"/>
	<path class="st3" d="M475,268.59c0,0,0.32-4.31,2.59-5.65c2.15-1.28,2.12,3.78,0,5.65S475,268.59,475,268.59z"/>
</g>
<g>
	<circle class="st8" cx="499.59" cy="191.7" r="33.76"/>
	<path class="st3" d="M502.4,164.38c0,0-27.4-3.97-31.05,28.33l9.18,1.24C480.53,193.94,483.35,165.35,502.4,164.38z"/>
	<path class="st3" d="M509.91,215.29c0,0,9.74,0.47,13.61-8.75c0.12-0.28-0.25-0.53-0.48-0.33c-1.9,1.61-7.19,5.88-11.81,7.58
		C506.71,215.47,509.91,215.29,509.91,215.29z"/>
	<path class="st3" d="M487.42,179.44c0,0,1.15-5.51,4.05-6.88c2.75-1.3,1.8,5.22-1.01,7.3
		C487.63,181.94,487.42,179.44,487.42,179.44z"/>
</g>
</svg>
